<svg width="1024" height="1024" viewBox="0 0 1024 1024" xmlns="http://www.w3.org/2000/svg">
<defs><linearGradient id="bg" x1="0" y1="0" x2="1" y2="1"><stop offset="0" stop-color="#F3ECDC"/><stop offset="1" stop-color="#E9DFC9"/></linearGradient></defs>
<rect width="1024" height="1024" fill="url(#bg)"/>
<rect x="60" y="60" width="904" height="904" rx="150" fill="none" stroke="#d1cabb" stroke-width="2"/>
<g transform="translate(222.49,776.88) scale(0.91185,-0.91185)" fill="#211B14"><path d="M271 627 262 542 423 554V405C380 439 324 457 275 457C159 457 44 364 44 224C44 99 145 -10 277 -10C305 -10 368 -5 423 42V0H591V82H510V648ZM421 223C421 137 353 76 278 76C201 76 136 138 136 225C136 314 203 371 278 371C374 371 421 288 421 223Z"/></g>
<rect x="372" y="826" width="280" height="8" rx="4" fill="#9B3526"/>
</svg>