<svg width="1024" height="1024" viewBox="0 0 1024 1024" xmlns="http://www.w3.org/2000/svg">
<defs><linearGradient id="bg" x1="0" y1="0" x2="1" y2="1"><stop offset="0" stop-color="#F3ECDC"/><stop offset="1" stop-color="#E9DFC9"/></linearGradient></defs>
<rect width="1024" height="1024" fill="url(#bg)"/>
<rect x="60" y="60" width="904" height="904" rx="150" fill="none" stroke="#d1cabb" stroke-width="2"/>
<g transform="translate(290.04,689.01) scale(0.69909,-0.69909)" fill="#211B14"><path d="M271 627 262 542 423 554V405C380 439 324 457 275 457C159 457 44 364 44 224C44 99 145 -10 277 -10C305 -10 368 -5 423 42V0H591V82H510V648ZM421 223C421 137 353 76 278 76C201 76 136 138 136 225C136 314 203 371 278 371C374 371 421 288 421 223Z"/></g>
<rect x="402" y="740" width="220" height="4" rx="2" fill="#9B3526"/>
<g transform="translate(274.40,890.00) scale(0.09600,-0.09600)" fill="#211B14"><path d="M271 627 262 542 423 554V405C380 439 324 457 275 457C159 457 44 364 44 224C44 99 145 -10 277 -10C305 -10 368 -5 423 42V0H591V82H510V648ZM421 223C421 137 353 76 278 76C201 76 136 138 136 225C136 314 203 371 278 371C374 371 421 288 421 223Z"/></g><g transform="translate(344.00,890.00) scale(0.09600,-0.09600)" fill="#211B14"><path d="M41 230C41 105 131 -14 300 -14C474 -14 559 110 559 230C559 356 468 474 300 474C138 474 41 362 41 230ZM133 230C133 312 190 388 300 388C413 388 467 308 467 230C467 152 413 72 300 72C190 72 133 149 133 230Z"/></g><g transform="translate(413.60,890.00) scale(0.09600,-0.09600)" fill="#211B14"><path d="M416 476 403 420C382 436 340 467 270 467C195 467 86 426 86 328C86 282 114 240 152 218C185 199 218 191 307 185C385 180 428 178 428 138C428 96 376 72 303 72C207 72 178 118 167 172L89 163C94 142 99 124 99 85C99 43 93 14 89 -10L167 -15L179 37C206 15 240 -14 319 -14C436 -14 518 52 518 136C518 165 505 206 470 232C434 259 388 261 300 267C245 271 176 274 176 325C176 373 242 381 281 381C298 381 385 381 403 329L411 306C412 302 415 295 416 293L494 304C489 324 484 344 484 376C484 407 489 438 494 463Z"/></g><g transform="translate(483.20,890.00) scale(0.09600,-0.09600)" fill="#211B14"><path d="M416 476 403 420C382 436 340 467 270 467C195 467 86 426 86 328C86 282 114 240 152 218C185 199 218 191 307 185C385 180 428 178 428 138C428 96 376 72 303 72C207 72 178 118 167 172L89 163C94 142 99 124 99 85C99 43 93 14 89 -10L167 -15L179 37C206 15 240 -14 319 -14C436 -14 518 52 518 136C518 165 505 206 470 232C434 259 388 261 300 267C245 271 176 274 176 325C176 373 242 381 281 381C298 381 385 381 403 329L411 306C412 302 415 295 416 293L494 304C489 324 484 344 484 376C484 407 489 438 494 463Z"/></g><g transform="translate(552.80,890.00) scale(0.09600,-0.09600)" fill="#211B14"><path d="M115 453V371H258V82H88V0H512V82H345V453ZM239 540H345V672H239Z"/></g><g transform="translate(622.40,890.00) scale(0.09600,-0.09600)" fill="#211B14"><path d="M536 144C482 112 398 72 315 72C185 72 162 158 153 194H545C546 203 548 232 548 255C548 353 468 467 310 467C156 467 61 353 61 224C61 98 149 -14 317 -14C395 -14 486 15 576 67ZM159 276C169 303 200 381 311 381C339 381 429 379 456 276Z"/></g><g transform="translate(692.00,890.00) scale(0.09600,-0.09600)" fill="#211B14"><path d="M71 453V371H182V82H62V0H454V82H269V269C277 277 368 381 433 381C467 381 486 357 497 338L586 406C564 428 526 467 450 467C364 467 311 419 269 379V453Z"/></g>
</svg>